<?xml version="1.0" encoding="UTF-8" standalone="no"?>
<!-- Created with Inkscape (http://www.inkscape.org/) -->

<svg
   width="93.5575mm"
   height="93.5575mm"
   viewBox="0 0 93.5575 93.5575"
   version="1.1"
   id="svg1"
   inkscape:version="1.3.2 (091e20ef0f, 2023-11-25, custom)"
   sodipodi:docname="launcher-openvr-overlay.svg"
   xmlns:inkscape="http://www.inkscape.org/namespaces/inkscape"
   xmlns:sodipodi="http://sodipodi.sourceforge.net/DTD/sodipodi-0.dtd"
   xmlns="http://www.w3.org/2000/svg"
   xmlns:svg="http://www.w3.org/2000/svg">
  <sodipodi:namedview
     id="namedview1"
     pagecolor="#ffffff"
     bordercolor="#666666"
     borderopacity="1.0"
     inkscape:showpageshadow="2"
     inkscape:pageopacity="0.0"
     inkscape:pagecheckerboard="0"
     inkscape:deskcolor="#d1d1d1"
     inkscape:document-units="mm"
     showgrid="false"
     inkscape:zoom="1.06962"
     inkscape:cx="333.763"
     inkscape:cy="195.396"
     inkscape:window-width="3836"
     inkscape:window-height="2106"
     inkscape:window-x="2"
     inkscape:window-y="52"
     inkscape:window-maximized="0"
     inkscape:current-layer="layer1" />
  <defs
     id="defs1">
    <inkscape:path-effect
       effect="fillet_chamfer"
       id="path-effect2"
       is_visible="true"
       lpeversion="1"
       nodesatellites_param="F,0,0,1,0,12.5656,0,1 @ F,0,0,1,0,11.2772,0,1 @ F,0,0,1,0,10.6658,0,1 @ F,0,0,1,0,7.46344,0,1"
       radius="0"
       unit="px"
       method="auto"
       mode="F"
       chamfer_steps="1"
       flexible="false"
       use_knot_distance="true"
       apply_no_radius="true"
       apply_with_radius="true"
       only_selected="false"
       hide_knots="false" />
  </defs>
  <g
     inkscape:label="Layer 1"
     inkscape:groupmode="layer"
     id="layer1"
     transform="translate(-5.0719,-38.4815)">
    <path
       id="rect3"
       style="fill:#000000;stroke-width:1.5;paint-order:markers stroke fill;stroke:#c6c6c6;fill-opacity:0.870419;stroke-opacity:1"
       d="M 13.2109,39.0215 C 10.0646,39.1161 7.08913,41.3822 6.0918,44.2656 5.28417,46.4399 5.70794,48.7951 5.60156,51.0566 5.63548,53.8266 5.53334,56.6022 5.65315,59.3687 5.99077,62.9938 9.09488,66.0995 12.7196,66.4394 15.9585,66.5626 19.2062,66.4571 22.4484,66.4922 24.5612,66.4935 26.8112,66.6821 28.7284,65.6054 31.5745,64.1976 33.3114,60.9943 33.082,57.8453 33.0558,53.9754 33.1344,50.1022 33.043,46.2344 32.8211,43.8625 31.4845,41.6419 29.4509,40.3173 27.8945,39.2652 26.0287,38.9168 24.1371,39.0117 20.4951,39.0182 16.8528,38.9987 13.2109,39.0215 Z" />
    <path
       id="rect3-5"
       style="fill:#000000;stroke-width:1.5;paint-order:markers stroke fill;stroke:#c6c6c6;fill-opacity:0.870419;stroke-opacity:1"
       d="M 45.7207,39.0215 C 42.5714,39.1438 39.6342,41.3127 38.5918,44.2871 38.1437,45.4297 38.0638,46.8694 38.1094,48.1586 38.1367,51.8618 38.0546,55.5685 38.1504,59.2695 38.4452,62.8983 41.509,66.0438 45.1301,66.4272 47.8672,66.5773 50.6165,66.4501 53.3582,66.4922 55.4226,66.4037 57.5289,66.7108 59.5605,66.2422 63.043,65.4146 65.6637,62.0214 65.5918,58.4434 65.5644,54.3741 65.6466,50.3014 65.5508,46.2344 65.2543,42.5725 62.1357,39.4064 58.4758,39.0642 55.2697,38.9415 52.0545,39.0468 48.8449,39.0117 47.8036,39.0173 46.7619,39 45.7207,39.0215 Z" />
    <path
       id="rect3-5-2"
       style="fill:#000000;stroke-width:1.5;paint-order:markers stroke fill;stroke:#c6c6c6;fill-opacity:0.870419;stroke-opacity:1"
       d="M 78.2285,39.0215 C 75.0818,39.117 72.1069,41.3815 71.1094,44.2656 70.3017,46.4399 70.7255,48.7951 70.6191,51.0566 70.6531,53.8266 70.5509,56.6022 70.6707,59.3687 71.0079,62.9942 74.1129,66.0993 77.7372,66.4394 80.9761,66.5626 84.2238,66.4571 87.466,66.4922 89.5701,66.4911 91.8083,66.6843 93.7209,65.6177 96.5461,64.2314 98.3022,61.0719 98.0996,57.9453 98.0734,54.0421 98.152,50.1355 98.0605,46.2344 97.8405,43.8945 96.54,41.706 94.5527,40.3711 92.8705,39.1866 90.7644,38.8961 88.7547,39.0117 85.246,39.0182 81.737,38.9987 78.2285,39.0215 Z" />
    <path
       id="rect3-0"
       style="fill:#000000;stroke-width:1.5;paint-order:markers stroke fill;stroke:#c6c6c6;fill-opacity:0.870419;stroke-opacity:1"
       d="M 13.209,71.5312 C 9.55058,71.6507 6.24814,74.591 5.71353,78.2131 5.47186,80.3184 5.66206,82.4504 5.60156,84.5664 5.6424,87.0352 5.51855,89.5117 5.66567,91.9758 6.006,95.2611 8.68861,98.2027 11.998,98.8359 14.0275,99.1675 16.0993,98.9265 18.1465,99 20.7826,98.9588 23.4264,99.0835 26.0578,98.936 28.6228,98.6475 31.0143,96.989 32.2004,94.6364 33.0167,93.1617 33.1527,91.3681 33.082,89.6551 33.0559,86.0179 33.1343,82.3773 33.043,78.7422 32.7769,75.7349 30.6522,73.0049 27.8066,72 26.6656,71.5561 25.223,71.4716 23.9352,71.5195 20.3598,71.5273 16.784,71.5039 13.209,71.5312 Z" />
    <path
       id="rect3-5-9"
       style="fill:#000000;stroke-width:1.5;paint-order:markers stroke fill;stroke:#c6c6c6;fill-opacity:0.870419;stroke-opacity:1"
       d="M 45.7188,71.5312 C 42.0509,71.6505 38.7413,74.6051 38.2179,78.2389 37.9831,80.404 38.1684,82.5935 38.1094,84.7684 38.1573,87.2027 38.0107,89.6467 38.1878,92.075 38.5653,95.3206 41.2366,98.2139 44.5137,98.8379 46.5417,99.1656 48.611,98.9273 50.6562,99 53.2924,98.9588 55.9361,99.0835 58.5676,98.936 62.26,98.5506 65.3651,95.2841 65.566,91.5779 65.6136,87.3953 65.6003,83.2084 65.5724,79.0253 65.4093,75.3679 62.4261,72.1087 58.7999,71.6135 56.4901,71.4052 54.1605,71.5741 51.843,71.5195 49.8016,71.5272 47.7598,71.5041 45.7188,71.5312 Z" />
    <path
       id="rect3-5-2-3"
       style="fill:#000000;stroke-width:1.5;paint-order:markers stroke fill;stroke:#c6c6c6;fill-opacity:0.870419;stroke-opacity:1"
       d="M 78.2266,71.5312 C 74.5691,71.6515 71.2649,74.59 70.7311,78.2131 70.4894,80.3184 70.6796,82.4504 70.6191,84.5664 70.66,87.0352 70.5361,89.5117 70.6832,91.9758 71.0245,95.2716 73.7214,98.2177 77.043,98.8418 79.0644,99.1627 81.1259,98.9284 83.1641,99 85.8002,98.9588 88.4439,99.0835 91.0754,98.936 94.0077,98.6073 96.6354,96.503 97.6191,93.7246 98.0509,92.6146 98.1489,91.2108 98.0996,89.9551 98.0734,86.2179 98.1519,82.4773 98.0605,78.7422 97.7638,75.114 94.702,71.968 91.0808,71.5847 88.3437,71.4343 85.5945,71.5617 82.8527,71.5195 81.3108,71.527 79.7682,71.5044 78.2266,71.5312 Z" />
    <path
       id="rect3-0-6"
       style="fill:#000000;stroke-width:1.5;paint-order:markers stroke fill;stroke:#c6c6c6;fill-opacity:0.870419;stroke-opacity:1"
       d="M 13.209,104.039 C 10.0633,104.135 7.08893,106.4 6.0918,109.283 5.28402,111.457 5.70805,113.813 5.60156,116.074 5.63548,118.844 5.53334,121.62 5.65315,124.386 5.99324,128.048 9.15661,131.173 12.8223,131.469 16.9285,131.563 21.0405,131.486 25.1488,131.507 28.7929,131.537 32.1969,128.759 32.9016,125.184 33.259,123.2 33.0058,121.167 33.082,119.163 33.0406,116.461 33.1657,113.751 33.018,111.054 32.7266,108.456 31.0282,106.038 28.6294,104.865 27.1209,104.049 25.275,103.966 23.5352,104.027 20.0932,104.035 16.6507,104.012 13.209,104.039 Z" />
    <path
       id="rect3-5-9-1"
       style="fill:#000000;stroke-width:1.5;paint-order:markers stroke fill;stroke:#c6c6c6;fill-opacity:0.870419;stroke-opacity:1"
       d="M 45.7188,104.039 C 42.5701,104.162 39.634,106.331 38.5918,109.305 38.1433,110.447 38.0641,111.887 38.1094,113.176 38.1367,116.879 38.0546,120.586 38.1504,124.287 38.4467,127.951 41.5685,131.116 45.2293,131.457 48.5016,131.58 51.7826,131.475 55.0582,131.51 57.1383,131.518 59.3504,131.682 61.2363,130.623 64.0498,129.23 65.7916,126.08 65.5918,122.961 65.5644,119.058 65.6466,115.152 65.5508,111.252 65.2544,107.59 62.1356,104.424 58.4758,104.082 55.3358,103.955 52.1865,104.063 49.043,104.027 47.935,104.034 46.8265,104.013 45.7188,104.039 Z" />
    <path
       id="rect3-5-2-3-8"
       style="fill:#000000;stroke-width:1.5;paint-order:markers stroke fill;stroke:#c6c6c6;fill-opacity:0.870419;stroke-opacity:1"
       d="M 78.2266,104.039 C 75.0805,104.136 72.1067,106.4 71.1094,109.283 70.3016,111.457 70.7256,113.813 70.6191,116.074 70.6531,118.844 70.5509,121.62 70.6707,124.386 71.0099,128.04 74.1604,131.159 77.8164,131.467 81.897,131.567 85.9836,131.481 90.0664,131.51 93.7082,131.579 97.1511,128.85 97.8954,125.281 98.2926,123.303 98.018,121.266 98.0996,119.263 98.0658,116.56 98.1677,113.852 98.048,111.153 97.7434,107.822 95.0442,104.83 91.6953,104.191 89.6341,103.86 87.5313,104.101 85.4527,104.027 83.0441,104.035 80.6349,104.012 78.2266,104.039 Z" />
  </g>
</svg>
